<?xml version="1.0" encoding="UTF-8"?>
<svg id="Layer_1" data-name="Layer 1" xmlns="http://www.w3.org/2000/svg" viewBox="0 0 313.82 323.51">
  <defs>
    <style>
      .cls-1 {
        fill: #fff;
      }
    </style>
  </defs>
  <path class="cls-1" d="M202.66,109.82h-30.51v2.15h29.43l-.07,7.92c0,24.48-19.94,44.4-44.46,44.4-23.17,0-42.25-17.8-44.27-40.43l.08-14.04h-32.67l-.63,103.86h62.07v-2.15h-29.39l.47-77.28c6.07,18.66,23.65,32.2,44.34,32.2s38.65-13.82,44.54-32.8v80.03h32.67v-103.86h-31.59ZM110.1,211.54h-28.36l.6-99.56h28.02l.08,7.92c0,1.36.07,2.71.19,4.04l-.53,87.6ZM232.1,211.54h-28.36v-99.56h28.36v99.56Z"/>
  <g>
    <g>
      <g>
        <path class="cls-1" d="M17.76,218.04l-2.72-10.84,21.18-5.33.28,1.13-20.15,5.07,2.44,9.71-1.03.26Z"/>
        <path class="cls-1" d="M17.39,218.64l-2.97-11.81,22.15-5.57.53,2.1-20.15,5.07,2.44,9.71-2,.5ZM15.64,207.56l2.48,9.87.06-.02-2.44-9.71,20.15-5.07-.04-.16-20.21,5.08Z"/>
      </g>
      <g>
        <path class="cls-1" d="M41.42,218.91l-20.33,7.99-.42-1.08,20.32-7.99.42,1.08Z"/>
        <path class="cls-1" d="M20.81,227.55l-.79-2.01,21.25-8.36.79,2.01-21.26,8.36ZM21.31,226.11l.06.15,19.39-7.63-.06-.15-19.39,7.63Z"/>
      </g>
      <g>
        <path class="cls-1" d="M51.18,238.02l-18.98,10.8-.65-1.13,11.64-20.31-4.58,2.71-12.9,7.34-.54-.96,18.98-10.8.65,1.14-11.63,20.31,4.58-2.71,12.9-7.34.55.96Z"/>
        <path class="cls-1" d="M32.01,249.5l-1.04-1.82.14-.25,10.7-18.67-2.95,1.75-13.34,7.59-1.04-1.83,19.85-11.3,1.03,1.82-10.83,18.92,2.95-1.75,13.34-7.59,1.04,1.83-19.85,11.3ZM50.44,237.74l-12.46,7.09-5.35,3.16,17.86-10.17-.05-.09ZM32.13,247.69l.06.11,12.03-21-.06-.1-12.03,21ZM25.84,236.65l.05.09,12.46-7.09,5.47-3.23-17.99,10.24Z"/>
      </g>
      <g>
        <path class="cls-1" d="M42.99,263.54c-1.72-2.04-2.36-4.11-1.92-6.22.44-2.1,2.08-4.35,4.92-6.74l.86-.72c2.83-2.38,5.31-3.62,7.44-3.72s4.02.82,5.65,2.76c2.93,3.48,2.5,6.81-1.29,10l-.54.45-.78-.93c1.91-1.61,3.01-3.1,3.29-4.48.28-1.38-.19-2.79-1.41-4.24l-.11-.13c-1.36-1.61-2.98-2.35-4.85-2.2-1.87.15-4.08,1.29-6.63,3.43l-.86.72c-2.57,2.16-4.08,4.15-4.53,5.97-.45,1.82.06,3.6,1.53,5.34l.11.13c.77.92,1.59,1.6,2.47,2.04.87.44,1.68.67,2.42.68l5.01-4.22-2.71-3.22.81-.69,3.46,4.11-6.26,5.26c-2.22-.06-4.25-1.19-6.11-3.39Z"/>
        <path class="cls-1" d="M49.28,267.43h-.19c-2.36-.06-4.54-1.27-6.48-3.58-1.81-2.16-2.5-4.39-2.03-6.64.46-2.2,2.17-4.57,5.09-7.02l.86-.72c2.9-2.44,5.5-3.73,7.74-3.84,2.28-.12,4.33.88,6.06,2.93,3.13,3.72,2.67,7.32-1.35,10.7l-.92.77-1.43-1.7.38-.32c1.82-1.53,2.87-2.94,3.13-4.2.25-1.23-.17-2.48-1.3-3.82l-.11-.13c-1.26-1.5-2.71-2.15-4.43-2.02-1.76.14-3.89,1.26-6.34,3.32l-.86.72c-2.48,2.08-3.95,4.01-4.36,5.71-.41,1.67.06,3.27,1.43,4.9l.11.14c.73.86,1.5,1.5,2.31,1.91.73.37,1.4.58,2.02.62l4.48-3.77-2.71-3.22,1.58-1.33,4.1,4.88-6.78,5.71ZM54.62,246.63c-.1,0-.2,0-.3,0-2.01.1-4.42,1.31-7.15,3.61l-.86.72c-2.74,2.31-4.34,4.48-4.76,6.46-.41,1.96.18,3.86,1.81,5.79h0c1.7,2.02,3.57,3.1,5.55,3.21l5.73-4.82-2.81-3.34-.05.04,2.71,3.22-5.54,4.66h-.19c-.81-.01-1.7-.26-2.64-.73-.93-.47-1.81-1.2-2.62-2.16l-.11-.14c-1.57-1.87-2.12-3.81-1.63-5.78.48-1.94,2.01-3.98,4.69-6.24l.86-.72c2.61-2.2,4.94-3.39,6.91-3.55,2.05-.16,3.81.64,5.27,2.37l.11.13c1.32,1.57,1.83,3.13,1.52,4.66-.29,1.41-1.3,2.86-3.08,4.43l.15.17.15-.13c3.56-3,3.96-6.04,1.22-9.29-1.46-1.74-3.08-2.59-4.94-2.59Z"/>
      </g>
      <g>
        <path class="cls-1" d="M64.76,282.53c-1.56.04-3.22-.7-4.99-2.2-1.77-1.51-2.76-3.03-2.97-4.57-.21-1.54.52-3.3,2.2-5.28l9.8-11.51.88.75-9.71,11.41c-1.49,1.75-2.16,3.26-2.01,4.54.15,1.28.98,2.56,2.49,3.85s2.92,1.91,4.2,1.85c1.28-.06,2.67-.96,4.16-2.71l9.71-11.41.88.75-9.8,11.51c-1.68,1.97-3.3,2.98-4.86,3.02Z"/>
        <path class="cls-1" d="M64.65,283.03c-1.64,0-3.39-.78-5.2-2.32-1.86-1.58-2.91-3.22-3.14-4.88-.23-1.68.55-3.59,2.32-5.67l10.13-11.89,1.65,1.4-10.04,11.79c-1.39,1.63-2.03,3.03-1.9,4.16.13,1.14.91,2.33,2.32,3.53,1.41,1.2,2.72,1.78,3.85,1.73,1.13-.05,2.41-.91,3.8-2.54l10.04-11.79,1.64,1.4-10.13,11.89c-1.77,2.08-3.53,3.15-5.22,3.19h0s-.08,0-.12,0ZM68.87,259.67l-9.48,11.13c-1.58,1.85-2.28,3.5-2.09,4.88.19,1.41,1.14,2.84,2.8,4.26,1.66,1.41,3.19,2.12,4.65,2.08,1.4-.03,2.91-.99,4.49-2.84l9.48-11.13-.12-.11-9.39,11.03c-1.6,1.88-3.07,2.82-4.51,2.89-1.41.07-2.94-.59-4.55-1.97-1.61-1.37-2.51-2.78-2.67-4.18-.16-1.43.53-3.04,2.13-4.92l9.39-11.02-.12-.1Z"/>
      </g>
      <g>
        <path class="cls-1" d="M86.49,272.8l-12.17,18.14-.96-.65,12.17-18.14.96.65Z"/>
        <path class="cls-1" d="M74.46,291.63l-1.79-1.2,12.72-18.97,1.8,1.2-12.72,18.97ZM74.05,290.16l.13.09,11.61-17.31-.13-.09-11.61,17.31Z"/>
      </g>
      <g>
        <path class="cls-1" d="M93.02,289.51c-1.9-1.33-3.09-2.67-3.56-4.03-.47-1.35-.39-2.64.25-3.87l.13-.25c.8-1.52,1.99-2.44,3.57-2.75,1.58-.31,3.27,0,5.07.95,4.03,2.11,4.98,5.19,2.86,9.24l-.33.62-1.03-.54c1.06-2.02,1.43-3.69,1.11-5.01-.31-1.32-1.33-2.43-3.04-3.33l-.15-.08c-1.41-.74-2.75-1-4.04-.8-1.28.2-2.22.87-2.82,2.01l-.13.25c-.62,1.19-.71,2.33-.27,3.43.44,1.1,1.55,2.27,3.32,3.51,1.96,1.38,3.19,2.76,3.69,4.11.5,1.36.38,2.75-.36,4.17l-.13.25c-.86,1.64-2.11,2.63-3.75,2.98-1.65.35-3.42.03-5.32-.97-2-1.05-3.27-2.42-3.78-4.1-.52-1.68-.28-3.48.73-5.4l.13-.25,1.03.54c-.94,1.8-1.18,3.42-.72,4.85.46,1.43,1.47,2.56,3.03,3.37l.15.08c1.54.81,2.98,1.08,4.31.83s2.35-1.05,3.05-2.39l.13-.25c.67-1.29.76-2.5.25-3.64-.51-1.14-1.64-2.33-3.39-3.56Z"/>
        <path class="cls-1" d="M92.13,301.02c-1.35,0-2.78-.39-4.25-1.16-2.12-1.11-3.48-2.59-4.03-4.39-.56-1.81-.3-3.75.76-5.78l.36-.69,1.91,1-.23.44c-.88,1.67-1.11,3.17-.69,4.47.42,1.31,1.34,2.32,2.79,3.08l.15.08c1.43.75,2.78,1.01,3.99.79,1.18-.22,2.07-.92,2.7-2.13l.13-.25c.6-1.16.68-2.21.24-3.21-.47-1.05-1.55-2.18-3.22-3.36h0c-1.98-1.39-3.24-2.82-3.75-4.27-.52-1.48-.42-2.91.28-4.26l.13-.25c.87-1.66,2.18-2.67,3.91-3,1.69-.33,3.51,0,5.4.99,4.24,2.22,5.31,5.65,3.08,9.91l-.56,1.06-1.91-1,.23-.44c.99-1.9,1.35-3.47,1.07-4.66-.28-1.17-1.21-2.18-2.79-3l-.16-.08c-1.3-.68-2.56-.93-3.73-.75-1.13.18-1.93.75-2.46,1.75l-.13.25c-.56,1.06-.64,2.05-.25,3.01.4,1,1.46,2.11,3.15,3.29,2.04,1.44,3.34,2.9,3.88,4.35.55,1.49.42,3.03-.39,4.58l-.13.25c-.92,1.77-2.3,2.86-4.09,3.24-.46.1-.93.15-1.41.15ZM85.39,290.35c-.85,1.71-1.05,3.34-.59,4.83.47,1.54,1.66,2.82,3.54,3.8,1.79.94,3.47,1.25,4.99.92,1.51-.32,2.62-1.21,3.41-2.72l.13-.25c.68-1.3.79-2.53.34-3.76-.46-1.26-1.65-2.56-3.51-3.88-1.87-1.31-3.01-2.53-3.5-3.73-.5-1.23-.4-2.53.29-3.85l.13-.25c.67-1.28,1.75-2.05,3.19-2.28,1.39-.22,2.85.07,4.35.85l.16.08c1.84.96,2.95,2.19,3.29,3.65.32,1.33,0,2.99-.93,4.91l.15.08.09-.18c1.98-3.79,1.12-6.59-2.65-8.56-1.69-.88-3.29-1.19-4.75-.9-1.44.28-2.49,1.1-3.22,2.49l-.13.25c-.58,1.11-.65,2.24-.22,3.47.43,1.25,1.57,2.52,3.37,3.78h0c1.85,1.3,3.01,2.53,3.56,3.77.57,1.28.48,2.65-.27,4.08l-.13.25c-.77,1.47-1.92,2.37-3.4,2.64-1.44.27-3-.03-4.64-.88l-.15-.08c-1.68-.88-2.78-2.11-3.28-3.66-.46-1.44-.29-3.04.53-4.79l-.15-.08Z"/>
      </g>
      <g>
        <path class="cls-1" d="M115.32,288.36l-6.98,19.57-1.09-.39,6.98-19.57-5.6-2,.36-1,12.3,4.39-.36,1-5.6-2Z"/>
        <path class="cls-1" d="M108.64,308.57l-2.04-.73,6.98-19.57-5.6-2,.69-1.94,13.24,4.72-.69,1.94-5.6-2-6.98,19.57ZM107.89,307.24l.15.05,6.98-19.57,5.6,2,.02-.06-11.36-4.05-.02.06,5.6,2-6.98,19.57Z"/>
      </g>
      <g>
        <path class="cls-1" d="M128.29,291.08l-5.2,21.21-1.13-.28,5.2-21.21,1.13.28Z"/>
        <path class="cls-1" d="M123.45,312.9l-2.1-.51,5.44-22.18,2.1.51-5.44,22.18ZM122.56,311.65l.16.04,4.96-20.24-.16-.04-4.96,20.24Z"/>
      </g>
      <g>
        <path class="cls-1" d="M134.89,304.26c-.41,3.33-.22,5.81.59,7.44.81,1.63,2.25,2.57,4.33,2.83l.17.02c1.86.23,3.29-.11,4.28-1.03.99-.92,1.62-2.41,1.87-4.46l1.21.15-.04.28c-.27,2.21-1.05,3.84-2.32,4.92-1.27,1.07-3.04,1.47-5.28,1.19-2.5-.31-4.24-1.38-5.23-3.21-.99-1.83-1.26-4.58-.8-8.27l.14-1.11c.46-3.68,1.39-6.29,2.8-7.82,1.41-1.53,3.36-2.14,5.86-1.83,4.49.56,6.43,3.29,5.82,8.2l-.09.7-1.21-.15c.31-2.48.1-4.32-.61-5.52-.72-1.2-2.02-1.92-3.9-2.15l-.17-.02c-2.05-.25-3.68.3-4.87,1.68-1.19,1.37-2,3.73-2.41,7.06l-.14,1.11Z"/>
        <path class="cls-1" d="M141.03,316.17c-.44,0-.9-.03-1.38-.09-2.65-.33-4.54-1.5-5.61-3.46-1.04-1.91-1.33-4.79-.86-8.57l.14-1.11c.47-3.77,1.46-6.5,2.93-8.1,1.52-1.65,3.64-2.31,6.29-1.98,2.38.3,4.12,1.2,5.17,2.68,1.04,1.47,1.41,3.51,1.09,6.08l-.15,1.19-2.2-.28.06-.5c.29-2.36.11-4.11-.55-5.2-.64-1.07-1.8-1.69-3.53-1.91l-.18-.02c-1.89-.24-3.34.26-4.43,1.51-1.12,1.29-1.89,3.58-2.29,6.8l-.14,1.11c-.4,3.22-.22,5.63.55,7.15.74,1.48,2.03,2.31,3.94,2.55l.17.02c1.7.21,3-.09,3.88-.9.9-.83,1.48-2.23,1.72-4.16l.06-.5,2.2.27-.1.77c-.29,2.32-1.13,4.08-2.5,5.24-1.1.93-2.54,1.39-4.28,1.39ZM141.24,293.78c-1.78,0-3.18.58-4.25,1.74-1.33,1.44-2.23,3.98-2.67,7.54l-.14,1.11c-.44,3.56-.19,6.25.74,7.97.92,1.69,2.5,2.66,4.85,2.95,2.09.26,3.74-.1,4.9-1.08,1.13-.95,1.84-2.42,2.12-4.38l-.22-.03c-.31,1.92-.96,3.35-1.96,4.27-1.1,1.02-2.68,1.41-4.68,1.16l-.17-.02c-2.24-.28-3.83-1.32-4.71-3.1-.86-1.73-1.07-4.25-.64-7.72l.14-1.11c.43-3.47,1.26-5.87,2.53-7.33,1.31-1.5,3.1-2.12,5.31-1.85l.18.02c2.03.25,3.47,1.06,4.26,2.39.73,1.23.98,2.98.74,5.34l.22.03.03-.2c.29-2.31-.02-4.12-.91-5.38-.88-1.24-2.39-2-4.48-2.26-.41-.05-.8-.08-1.17-.08Z"/>
      </g>
      <g>
        <path class="cls-1" d="M171.51,304.76c-2.32-.04-4.06-.49-5.2-1.35-1.15-.86-1.8-1.97-1.95-3.34l-.03-.28c-.19-1.71.28-3.13,1.42-4.27,1.14-1.14,2.72-1.83,4.74-2.05,4.52-.51,7.03,1.51,7.54,6.05l.08.7-1.15.13c-.25-2.26-.88-3.85-1.88-4.78s-2.46-1.27-4.38-1.06l-.17.02c-1.58.18-2.84.71-3.79,1.6-.95.89-1.35,1.97-1.21,3.25l.03.28c.15,1.33.71,2.33,1.69,2.99.98.66,2.55,1.01,4.72,1.05,2.4.05,4.19.5,5.36,1.34,1.18.84,1.85,2.07,2.03,3.66l.03.28c.21,1.84-.28,3.36-1.44,4.57-1.17,1.21-2.82,1.94-4.95,2.18-2.25.25-4.06-.17-5.43-1.28s-2.18-2.73-2.42-4.89l-.03-.28,1.15-.13c.23,2.02.93,3.5,2.12,4.43,1.18.93,2.65,1.29,4.4,1.1l.17-.02c1.73-.19,3.08-.77,4.04-1.72.96-.95,1.36-2.18,1.19-3.68l-.03-.28c-.16-1.45-.77-2.5-1.83-3.16-1.06-.66-2.66-1.01-4.8-1.05Z"/>
        <path class="cls-1" d="M171.78,316.3c-1.82,0-3.34-.49-4.54-1.46-1.47-1.19-2.34-2.94-2.6-5.22l-.09-.77,2.15-.24.06.5c.21,1.87.86,3.25,1.93,4.09,1.09.85,2.41,1.18,4.04.99l.17-.02c1.61-.18,2.87-.71,3.74-1.58.86-.85,1.2-1.92,1.05-3.27l-.03-.28c-.15-1.3-.67-2.21-1.6-2.79-.97-.61-2.5-.94-4.55-.98h0c-2.42-.04-4.27-.53-5.49-1.45-1.26-.94-1.98-2.18-2.15-3.69l-.03-.28c-.21-1.86.32-3.43,1.56-4.68,1.21-1.22,2.91-1.96,5.03-2.2,4.75-.53,7.56,1.71,8.09,6.5l.13,1.19-2.15.24-.06-.5c-.24-2.13-.82-3.63-1.72-4.46-.88-.81-2.22-1.13-3.99-.93l-.17.02c-1.46.16-2.64.66-3.51,1.46-.84.78-1.18,1.7-1.06,2.83l.03.28c.13,1.2.62,2.06,1.48,2.64.89.6,2.39.93,4.45.96,2.49.05,4.39.54,5.64,1.44,1.29.93,2.04,2.28,2.24,4.01l.03.28c.22,1.98-.31,3.66-1.58,4.97-1.25,1.29-3.01,2.07-5.26,2.33-.43.05-.85.07-1.26.07ZM165.65,309.73c.25,1.9,1,3.36,2.21,4.33,1.26,1.01,2.96,1.41,5.06,1.17,2-.23,3.57-.91,4.65-2.03,1.07-1.11,1.5-2.47,1.31-4.17l-.03-.28c-.17-1.46-.76-2.54-1.83-3.31-1.09-.78-2.79-1.2-5.08-1.25-2.28-.04-3.92-.41-4.99-1.13-1.1-.74-1.75-1.87-1.91-3.35l-.03-.28c-.16-1.44.3-2.68,1.37-3.67,1.03-.96,2.4-1.54,4.08-1.73l.17-.02c2.06-.23,3.67.17,4.78,1.19,1.01.93,1.67,2.47,1.97,4.59l.17-.02-.02-.2c-.48-4.25-2.77-6.09-6.99-5.61-1.89.21-3.39.85-4.44,1.91-1.03,1.04-1.45,2.3-1.28,3.86l.03.28c.14,1.24.71,2.22,1.75,3,1.06.79,2.71,1.21,4.91,1.25h0c2.26.04,3.91.41,5.06,1.13,1.19.74,1.88,1.93,2.06,3.53l.03.28c.19,1.65-.26,3.03-1.34,4.1-1.04,1.03-2.5,1.66-4.34,1.86l-.17.02c-1.87.21-3.48-.19-4.77-1.2-1.19-.93-1.94-2.37-2.24-4.27l-.17.02Z"/>
      </g>
      <g>
        <path class="cls-1" d="M200.95,307.27c-.73,1.96-2.31,3.27-4.73,3.94-2.42.67-4.45.36-6.09-.94-1.64-1.3-2.95-3.74-3.94-7.32l-.3-1.08c-.99-3.58-1.12-6.35-.39-8.3s2.31-3.27,4.73-3.94c2.42-.67,4.45-.36,6.09.94,1.63,1.3,2.95,3.74,3.94,7.32l.3,1.08c.99,3.58,1.12,6.35.39,8.3ZM195.85,310.21l.17-.05c2.01-.56,3.3-1.7,3.87-3.41.57-1.72.4-4.2-.5-7.46l-.3-1.08c-.9-3.25-2.04-5.47-3.41-6.65-1.37-1.18-3.06-1.49-5.08-.93l-.17.05c-2.01.56-3.31,1.7-3.87,3.41-.57,1.72-.4,4.2.5,7.46l.3,1.08c.9,3.26,2.04,5.47,3.41,6.65,1.37,1.18,3.06,1.49,5.08.93Z"/>
        <path class="cls-1" d="M193.87,312.06c-1.53,0-2.89-.47-4.06-1.39-1.71-1.36-3.09-3.91-4.11-7.58l-.3-1.08c-1.02-3.67-1.14-6.57-.38-8.61.79-2.1,2.49-3.53,5.07-4.25,2.57-.72,4.77-.37,6.53,1.03,1.71,1.36,3.1,3.91,4.11,7.58l.3,1.08c1.02,3.67,1.14,6.56.38,8.61h0c-.79,2.11-2.49,3.54-5.07,4.25-.87.24-1.69.36-2.47.36ZM192.58,289.78c-.69,0-1.43.11-2.22.33-2.28.63-3.72,1.82-4.4,3.64-.69,1.84-.55,4.53.41,7.99l.3,1.08c.96,3.46,2.23,5.84,3.77,7.06,1.52,1.21,3.36,1.48,5.64.85,2.28-.63,3.72-1.82,4.4-3.64.69-1.85.55-4.54-.4-7.99l-.3-1.08c-.96-3.46-2.23-5.83-3.77-7.06-.99-.79-2.12-1.18-3.43-1.18ZM194,310.98c-1.34,0-2.54-.44-3.56-1.32-1.46-1.25-2.63-3.51-3.57-6.9l-.3-1.08c-.94-3.38-1.1-5.92-.5-7.75.62-1.88,2.04-3.14,4.21-3.74l.17-.05c2.18-.6,4.04-.26,5.54,1.03,1.46,1.26,2.63,3.51,3.57,6.9l.3,1.08c.94,3.39,1.1,5.92.5,7.75-.62,1.88-2.04,3.14-4.21,3.74l-.17.05c-.69.19-1.35.29-1.98.29ZM192.44,290.86c-.54,0-1.11.08-1.71.25l-.17.05c-1.86.52-3.02,1.53-3.53,3.09-.53,1.61-.36,4.02.51,7.17l.3,1.08c.87,3.15,1.97,5.3,3.26,6.41,1.25,1.08,2.76,1.34,4.62.83h0s.17-.05.17-.05c1.86-.51,3.01-1.53,3.53-3.09.53-1.61.36-4.02-.51-7.17l-.3-1.08c-.87-3.14-1.97-5.3-3.26-6.41-.84-.72-1.8-1.08-2.9-1.08Z"/>
      </g>
      <g>
        <path class="cls-1" d="M222.66,301.03l-10.24,4.48-8.75-20.01,1.06-.46,8.32,19.04,9.17-4.01.43.98Z"/>
        <path class="cls-1" d="M212.16,306.16l-9.15-20.93,1.98-.87,8.32,19.04,9.17-4.01.83,1.89-11.15,4.88ZM204.33,285.75l8.35,19.09,9.32-4.08-.03-.06-9.17,4.01-8.32-19.04-.15.06Z"/>
      </g>
      <g>
        <path class="cls-1" d="M239.19,290.1c-.45,1.49-1.67,2.84-3.65,4.04-1.98,1.21-3.74,1.67-5.27,1.39-1.53-.28-2.97-1.53-4.32-3.75l-7.87-12.91.99-.6,7.8,12.79c1.2,1.96,2.42,3.07,3.68,3.33,1.26.26,2.74-.13,4.44-1.16,1.7-1.04,2.72-2.17,3.07-3.41s-.08-2.84-1.28-4.8l-7.8-12.79.99-.6,7.87,12.91c1.35,2.22,1.8,4.07,1.35,5.56Z"/>
        <path class="cls-1" d="M231.14,296.11c-.33,0-.66-.03-.97-.09-1.67-.31-3.24-1.65-4.66-3.98l-8.13-13.34,1.85-1.12,8.06,13.22c1.11,1.83,2.24,2.87,3.35,3.1,1.12.23,2.5-.14,4.08-1.1,1.58-.96,2.54-2.01,2.85-3.12.3-1.09-.11-2.58-1.22-4.4l-8.06-13.22,1.85-1.12,8.13,13.34c1.42,2.33,1.89,4.34,1.4,5.96h0c-.49,1.6-1.79,3.06-3.87,4.33-1.68,1.03-3.24,1.54-4.65,1.54ZM218.76,279.05l7.61,12.48c1.27,2.08,2.61,3.26,3.99,3.51,1.39.26,3.05-.19,4.92-1.33,1.86-1.14,3.02-2.4,3.43-3.76.41-1.34-.03-3.07-1.3-5.15l-7.61-12.48-.14.08,7.54,12.36c1.28,2.1,1.72,3.8,1.33,5.19-.38,1.36-1.48,2.6-3.29,3.71-1.81,1.1-3.42,1.52-4.8,1.23-1.41-.29-2.72-1.46-4-3.56l-7.54-12.36-.14.08Z"/>
      </g>
      <g>
        <path class="cls-1" d="M240.49,264.79l13.22,16.03-.9.74-13.22-16.03-4.59,3.79-.68-.82,10.08-8.31.68.82-4.59,3.79Z"/>
        <path class="cls-1" d="M252.75,282.26l-13.22-16.03-4.59,3.79-1.31-1.59,10.85-8.95,1.31,1.59-4.59,3.79,13.22,16.03-1.67,1.38ZM239.66,264.83l13.22,16.03.12-.1-13.22-16.03,4.59-3.79-.04-.05-9.3,7.67.04.05,4.59-3.79Z"/>
      </g>
      <g>
        <path class="cls-1" d="M249.48,255.06l15.55,15.33-.81.83-15.55-15.33.82-.83Z"/>
        <path class="cls-1" d="M264.22,271.93l-16.26-16.04,1.52-1.54,16.26,16.03-1.52,1.54ZM249.37,255.88l14.84,14.63.11-.12-14.84-14.63-.11.11Z"/>
      </g>
      <g>
        <path class="cls-1" d="M277.86,251.67c.59,2,.12,4-1.41,6-1.53,1.99-3.34,2.96-5.43,2.91-2.09-.05-4.61-1.21-7.55-3.47l-.89-.68c-2.95-2.26-4.72-4.39-5.31-6.4-.59-2-.12-4,1.41-6,1.53-2,3.34-2.97,5.43-2.91,2.09.05,4.61,1.21,7.55,3.47l.89.68c2.95,2.26,4.71,4.4,5.31,6.4ZM275.55,257.08l.11-.14c1.27-1.66,1.62-3.34,1.04-5.06s-2.21-3.6-4.89-5.66l-.89-.68c-2.68-2.06-4.92-3.15-6.73-3.26-1.8-.12-3.34.65-4.62,2.31l-.11.14c-1.27,1.66-1.62,3.34-1.04,5.06.58,1.71,2.21,3.6,4.89,5.66l.89.68c2.68,2.06,4.92,3.15,6.73,3.26s3.34-.65,4.62-2.31Z"/>
        <path class="cls-1" d="M271.19,261.08c-.06,0-.12,0-.18,0-2.19-.06-4.83-1.26-7.84-3.58l-.89-.68c-3.02-2.32-4.86-4.56-5.48-6.65-.64-2.16-.14-4.32,1.49-6.44,1.63-2.12,3.59-3.14,5.84-3.11,2.19.06,4.83,1.26,7.84,3.58l.89.68c3.02,2.32,4.86,4.55,5.48,6.65h0c.64,2.16.13,4.32-1.49,6.44-1.58,2.06-3.49,3.11-5.66,3.11ZM263.94,241.61c-1.87,0-3.46.89-4.87,2.72-1.44,1.88-1.88,3.69-1.33,5.55.56,1.89,2.29,3.96,5.13,6.14l.89.68c2.85,2.18,5.29,3.32,7.26,3.37,1.98.06,3.58-.84,5.02-2.71,1.44-1.88,1.88-3.69,1.33-5.55-.56-1.89-2.29-3.96-5.13-6.14l-.89-.68c-2.85-2.19-5.29-3.32-7.26-3.37-.05,0-.1,0-.16,0ZM271.29,259.91c-.13,0-.26,0-.39-.01-1.92-.12-4.21-1.23-7-3.37l-.89-.68c-2.79-2.14-4.44-4.07-5.06-5.89-.63-1.87-.26-3.73,1.12-5.52l.11-.14c1.37-1.79,3.05-2.62,5.04-2.5,1.92.12,4.21,1.23,7,3.37l.89.68c2.79,2.14,4.44,4.07,5.06,5.89.63,1.87.26,3.73-1.12,5.52l-.11.14c-1.28,1.67-2.85,2.52-4.66,2.52ZM263.84,242.78c-1.5,0-2.77.7-3.86,2.13l-.11.14c-1.17,1.53-1.49,3.03-.96,4.59.54,1.61,2.13,3.43,4.72,5.42l.89.68c2.59,1.99,4.76,3.05,6.45,3.16,1.64.1,3.01-.58,4.19-2.12l.11-.14c1.17-1.53,1.49-3.03.96-4.59-.54-1.61-2.13-3.43-4.72-5.42l-.89-.68c-2.59-1.99-4.76-3.05-6.46-3.16-.11,0-.22-.01-.32-.01Z"/>
      </g>
      <g>
        <path class="cls-1" d="M273.19,220.29l19.5,9.84-.59,1.17-23.36,1.54,4.79,2.32,13.25,6.69-.5.98-19.5-9.84.59-1.17,23.36-1.54-4.79-2.32-13.25-6.69.5-.98Z"/>
        <path class="cls-1" d="M286.5,243.5l-20.39-10.29.94-1.87,21.76-1.43-3.09-1.5-13.7-6.92.95-1.88,20.39,10.29-.94,1.87-21.76,1.43,3.09,1.49,13.7,6.92-.95,1.88ZM267.63,232.86l18.42,9.3.05-.09-12.8-6.46-5.67-2.74ZM267.68,232.3l-.05.11,24.15-1.59.05-.11-24.15,1.59ZM273.36,221.05l12.8,6.46,5.66,2.74-18.41-9.3-.05.09Z"/>
      </g>
      <g>
        <path class="cls-1" d="M287.77,211.21c-.9,2.14-1.96,3.59-3.18,4.34-1.22.75-2.5.94-3.83.58l-.27-.07c-1.66-.45-2.8-1.42-3.44-2.9-.64-1.48-.69-3.2-.16-5.16,1.2-4.38,4.01-5.97,8.42-4.77l.68.18-.31,1.12c-2.2-.6-3.91-.61-5.13-.02-1.22.59-2.09,1.81-2.6,3.68l-.05.17c-.42,1.53-.39,2.9.08,4.11.47,1.21,1.33,1.99,2.57,2.33l.27.07c1.3.36,2.43.2,3.41-.46.98-.67,1.88-2,2.72-4,.94-2.21,2.01-3.71,3.23-4.49,1.22-.78,2.6-.96,4.15-.53l.27.07c1.78.49,3.02,1.5,3.71,3.03.69,1.53.75,3.34.19,5.41-.6,2.18-1.66,3.71-3.2,4.57s-3.34,1.01-5.43.44l-.27-.07.31-1.12c1.96.54,3.59.43,4.89-.33,1.3-.76,2.18-1.98,2.65-3.68l.05-.17c.46-1.68.43-3.14-.1-4.39-.53-1.25-1.52-2.07-2.98-2.47l-.27-.07c-1.4-.38-2.61-.21-3.61.53-1,.74-1.92,2.1-2.76,4.07Z"/>
        <path class="cls-1" d="M292.23,219.76c-.79,0-1.62-.12-2.49-.36l-.75-.21.57-2.08.48.13c1.82.5,3.34.4,4.51-.28,1.2-.69,1.99-1.8,2.42-3.38l.05-.17c.43-1.56.4-2.93-.08-4.06-.47-1.11-1.34-1.83-2.65-2.19l-.27-.07c-1.26-.34-2.3-.2-3.19.45-.93.68-1.8,1.98-2.59,3.86h0c-.93,2.23-2.07,3.77-3.38,4.57-1.34.82-2.76,1.03-4.22.63l-.27-.07c-1.8-.49-3.07-1.56-3.77-3.18-.68-1.58-.74-3.42-.18-5.49,1.28-4.68,4.32-6.41,9.03-5.12l1.16.32-.57,2.08-.48-.13c-2.07-.57-3.68-.58-4.79-.05-1.08.52-1.87,1.65-2.34,3.36l-.05.17c-.39,1.42-.37,2.7.06,3.8.42,1.07,1.15,1.73,2.24,2.03l.27.08c1.16.32,2.14.19,3-.4.89-.61,1.74-1.88,2.54-3.78.99-2.33,2.11-3.87,3.42-4.71,1.34-.85,2.87-1.05,4.55-.59l.27.07c1.92.53,3.28,1.64,4.04,3.31.74,1.64.81,3.57.21,5.75-.63,2.31-1.79,3.95-3.43,4.87-1,.56-2.11.84-3.32.84ZM290.22,218.49c1.86.46,3.48.32,4.84-.45,1.41-.79,2.4-2.23,2.96-4.27.53-1.95.48-3.65-.16-5.07-.63-1.4-1.74-2.31-3.39-2.76l-.27-.07c-1.42-.39-2.64-.23-3.75.47-1.13.72-2.15,2.15-3.04,4.26-.88,2.11-1.83,3.49-2.9,4.21-1.1.75-2.39.93-3.82.53l-.27-.07c-1.4-.38-2.37-1.27-2.9-2.63-.51-1.31-.54-2.8-.09-4.43l.05-.17c.55-2,1.51-3.35,2.87-4,1.24-.59,2.92-.64,5-.13l.04-.16-.19-.05c-4.13-1.13-6.68.31-7.8,4.42-.5,1.84-.46,3.46.13,4.83.58,1.35,1.6,2.2,3.12,2.62l.27.07c1.21.33,2.33.16,3.44-.52,1.12-.69,2.13-2.07,2.98-4.1h0c.86-2.05,1.84-3.49,2.92-4.28,1.13-.83,2.49-1.03,4.04-.61l.27.07c1.61.44,2.72,1.37,3.31,2.76.57,1.34.61,2.93.13,4.72l-.05.17c-.5,1.82-1.47,3.16-2.88,3.98-1.3.76-2.91.93-4.79.5l-.04.16Z"/>
      </g>
    </g>
    <g>
      <path class="cls-1" d="M77.03,65.28l-4.87,4.13-14.5-17.11,3.47,20.46-19.4-7.17,14.61,17.24-4.87,4.13-21.73-25.63,5.61-4.75,17.89,6.69-3.35-19.02,5.41-4.59,21.73,25.63Z"/>
      <path class="cls-1" d="M104.64,51.24l-19.85,9.89-14.97-30.03,19.85-9.89,2.4,4.81-14.13,7.05,3.58,7.18,13.95-6.95,2.34,4.7-13.95,6.95,4.12,8.27,14.13-7.04,2.53,5.08Z"/>
      <path class="cls-1" d="M137.09,25.17c.53,2.26.64,4.47.34,6.63s-.96,4.14-1.97,5.94c-1.02,1.8-2.37,3.36-4.06,4.66-1.69,1.3-3.66,2.21-5.89,2.74l-13.66,3.19-7.65-32.72,13.66-3.2c2.23-.52,4.4-.57,6.5-.14,2.1.43,4,1.22,5.71,2.37,1.71,1.15,3.17,2.64,4.4,4.45,1.23,1.81,2.11,3.84,2.63,6.07ZM130.63,26.51c-.33-1.53-.9-2.92-1.71-4.17-.81-1.25-1.8-2.27-2.96-3.08-1.17-.8-2.49-1.34-3.98-1.61-1.49-.27-3.08-.21-4.76.19l-5.52,1.29,5.22,22.33,5.52-1.29c1.66-.39,3.09-1.02,4.28-1.89,1.19-.87,2.13-1.91,2.83-3.12s1.14-2.55,1.32-4.02c.19-1.47.11-3.01-.24-4.62Z"/>
      <path class="cls-1" d="M181.4,42.78l-6.37-.38,1.35-22.39-11.64,17.18-9.06-18.6-1.37,22.55-6.37-.38,2.03-33.54,7.34.44,8.3,17.21,10.73-16.06,7.09.43-2.03,33.54Z"/>
      <path class="cls-1" d="M196.25,47.49l-6.27-1.75,9.03-32.32,6.27,1.75-9.03,32.32Z"/>
      <path class="cls-1" d="M230.2,62.18l-5.73-2.81-3.24-27.83-10.37,21.16-5.73-2.81,14.79-30.17,6.56,3.22,3.13,25.95,9.65-19.69,5.73,2.81-14.79,30.17Z"/>
      <path class="cls-1" d="M271.14,73.59c-1.51,1.77-3.22,3.17-5.13,4.21-1.91,1.04-3.9,1.68-5.95,1.93-2.06.25-4.11.08-6.16-.51-2.05-.59-3.95-1.63-5.7-3.12l-10.67-9.1,21.8-25.57,10.67,9.1c1.75,1.49,3.07,3.21,3.97,5.15.9,1.94,1.39,3.95,1.48,6,.08,2.06-.24,4.12-.97,6.18-.73,2.06-1.84,3.97-3.33,5.72ZM266.23,69.18c1.04-1.17,1.82-2.46,2.34-3.85.52-1.39.76-2.8.72-4.21-.04-1.42-.4-2.8-1.06-4.16-.66-1.36-1.66-2.6-2.98-3.73l-4.31-3.68-14.88,17.45,4.31,3.68c1.3,1.11,2.65,1.88,4.06,2.33,1.41.44,2.8.59,4.19.43,1.39-.16,2.73-.6,4.02-1.32s2.49-1.7,3.58-2.94Z"/>
    </g>
    <path class="cls-1" d="M304.67,184.68l-1.99-.2c.5-4.94.76-9.98.76-14.98,0-24.42-6.13-48.6-17.72-69.91l1.76-.96c11.75,21.61,17.96,46.11,17.96,70.87,0,5.07-.26,10.18-.77,15.19Z"/>
    <path class="cls-1" d="M9.15,184.69c-.51-5.02-.77-10.13-.77-15.2,0-24.59,6.13-48.95,17.74-70.45l1.76.95c-11.45,21.21-17.5,45.24-17.5,69.5,0,5,.25,10.04.76,15l-1.99.2Z"/>
  </g>
</svg>