<svg width="59" height="97" viewBox="0 0 59 97" fill="none" xmlns="http://www.w3.org/2000/svg">
<g clip-path="url(#clip0_2058_39)">
<path d="M48.6494 61C47.6465 61 48.2692 61.9491 48.2692 61.9491C48.2692 61.9491 50.82 63.1202 48.0005 70C40.6331 81.1381 20.4736 78.5752 20.1875 80.1412C23.2686 81.8768 28.3161 83.6841 24.4488 87.0395C27.2892 88.7216 30.6001 90.0646 33.7141 91.3732C55.566 92.3131 63.7708 72.8145 50.0794 62.132L48.8848 61.1864L48.6494 61Z" fill="#EE681F"/>
<path d="M42.0762 29.8438C36.4376 29.8465 39.1292 40.7553 37.0391 45.9922C35.4875 49.8798 31.4961 57.2598 31.4961 57.2598C31.4961 57.2598 30.44 76.0079 30.4336 76.2012C33.0545 81.2368 36.6928 75.0966 37.498 72.1309C38.4631 67.9747 39.8455 63.9255 41.2734 59.9102C42.9612 55.9877 44.7735 52.0936 46.0781 48.0254C46.613 43.1829 44.5398 38.617 43.377 34C43.0224 32.5923 43.5279 29.8431 42.0762 29.8438Z" fill="#E86B1D"/>
<path d="M18.9079 80.2379C15.8073 80.0746 9.39077 82.0127 0.801446 88.8946L-1.01465 90.5594C-0.382872 91.5036 2.47955 89.0072 17.2167 90.927C20.1352 91.302 23.0243 91.9761 25.9621 92.0333C28.1273 92.0756 31.7383 92.2569 32.4345 91.4698C28.4525 89.6133 28.4943 89.8161 23.3567 87.2379C26.7218 84.4434 23.3696 82.2701 18.9079 80.2379Z" fill="#F99421"/>
<path d="M44.1684 55.416C41.03 60.0731 36.2123 75.8968 38.5416 75.8591C40.7457 75.1257 42.9814 74.2271 44.5332 72.5439C46.5176 70.3915 48.1564 67.4647 48.1737 64.524C48.1932 61.2022 45.1494 56.9527 44.1684 55.416Z" fill="#E86B1D"/>
<path d="M10.751 0L10.5635 5.55664C10.3981 8.77059 10.9681 12.0358 12.2725 14.9805C13.5281 16.451 12.7771 18.2863 11.5693 19.4961C10.5809 21.0007 9.27165 22.3495 8.60254 24.0332V24.0137C8.59494 24.0287 8.5866 24.0435 8.5791 24.0586C8.5811 24.0651 8.5848 24.0716 8.5869 24.0781C8.5848 24.0833 8.5811 24.0885 8.5791 24.0938C9.24371 25.7395 12.1365 25.86 13.8545 26.8535C16.9693 28.6549 20.433 30.0282 22.9619 32.6484C24.4736 34.0126 25.2691 36.0595 27.0127 37.1641C28.1401 37.9134 29.1884 38.0015 29.5049 38.0098C29.8213 38.0015 30.8599 37.9134 31.9873 37.1641C33.7309 36.0595 34.5264 34.0126 36.0381 32.6484C38.567 30.0282 42.0307 28.6549 45.1455 26.8535C46.8635 25.86 49.7563 25.7395 50.4209 24.0938C50.4189 24.0886 50.4171 24.0834 50.415 24.0781C50.4171 24.0716 50.4189 24.0651 50.4209 24.0586C50.4134 24.0435 50.4051 24.0287 50.3975 24.0137V24.0332C49.7284 22.3495 48.4191 21.0007 47.4307 19.4961C46.2229 18.2863 45.4719 16.451 46.7275 14.9805C48.0319 12.0358 48.6019 8.77059 48.4365 5.55664L48.249 0C46.1079 0.238662 44.2053 1.39799 42.2861 2.29297C39.4879 3.66781 37.155 5.7451 34.749 7.6875C33.9247 7.40319 31.7242 7.25962 29.5049 7.25586C27.2856 7.25966 25.0753 7.40319 24.251 7.6875C21.845 5.7451 19.5121 3.66781 16.7139 2.29297C14.7947 1.39799 12.8921 0.238662 10.751 0ZM13.6611 4.04102C13.8525 4.03412 14.0689 4.0608 14.3135 4.125C17.1713 6.06759 19.6062 8.04659 20.1631 10.3477C19.7751 11.7953 18.6546 13.0968 14.5811 14.1426C13.647 11.8147 10.7907 4.14434 13.6611 4.04102ZM45.3389 4.04102C48.2093 4.14434 45.353 11.8147 44.4189 14.1426C40.3454 13.0968 39.2249 11.7953 38.8369 10.3477C39.3938 8.0466 41.8287 6.0676 44.6865 4.125C44.9311 4.0608 45.1475 4.03414 45.3389 4.04102ZM17.9307 19.8574C18.1035 19.8504 18.2748 19.856 18.4385 19.875C29.758 21.1877 24.1329 31.1488 29.5049 33.3477C34.8769 31.1488 29.242 21.1877 40.5615 19.875C41.8706 19.7232 43.7384 20.44 41.9522 21.4531C36.8765 24.3752 34.8162 27.4736 33.1084 32.7305C32.3062 34.4981 31.4332 36.2231 29.5049 36.6797C27.5766 36.2231 26.6938 34.4981 25.8916 32.7305C24.1838 27.4736 22.1235 24.3752 17.0479 21.4531C15.4849 20.5666 16.7206 19.9068 17.9307 19.8574Z" fill="#F37C21"/>
<path d="M16.9225 29.8516C22.5611 29.8543 19.8695 40.7631 21.9596 46C23.5112 49.8876 27.5026 57.2676 27.5026 57.2676C27.5026 57.2676 28.5587 76.0157 28.5651 76.209C25.9441 81.2447 22.3059 75.1044 21.5006 72.1387C20.5355 67.9825 19.1532 63.9333 17.7252 59.918C16.0374 55.9956 14.2251 52.1014 12.9205 48.0332C12.8825 47.6889 12.8576 47.346 12.8447 47.0043C12.6758 42.5412 14.5415 38.2965 15.6217 34.0078C15.9762 32.6001 15.4708 29.8509 16.9225 29.8516Z" fill="#E86B1D"/>
<path d="M14.872 55.416C18.0409 60.0731 22.9056 75.8968 20.5536 75.8591C18.328 75.1257 15.7159 74.6959 14.0617 73.0079C11.8123 70.7127 10.2271 67.315 10.3637 64.1041C10.5023 60.8443 13.8815 56.9527 14.872 55.416Z" fill="#E86B1D"/>
</g>
<defs>
<clipPath id="clip0_2058_39">
<rect width="59" height="97" fill="white"/>
</clipPath>
</defs>
</svg>
