<svg width="64" height="64" viewBox="0 0 64 64" fill="none" xmlns="http://www.w3.org/2000/svg">
<g clip-path="url(#clip0_2079_2)">
<path d="M11.5571 4.81445C13.0248 5.80665 20.6648 12.3086 20.6648 12.3086L9.52632 21.1719C9.52632 21.1719 10.8895 10.142 11.5571 4.81445ZM52.0494 4.81445C52.717 10.142 54.0802 21.1719 54.0802 21.1719L42.9417 12.3086C42.9417 12.3086 50.5817 5.80665 52.0494 4.81445ZM35.3607 60.0083L45.3571 48.8359L63.0206 32.957C63.0206 32.957 59.0116 27.9391 57.5532 25.1016C55.9805 16.9216 54.0379 0.509766 54.0379 0.509766C54.0379 0.509766 44.377 7.51983 40.234 10.6328C37.4277 10.6456 31.8032 10.7422 31.8032 10.7422C31.8032 10.7422 26.1788 10.6456 23.3725 10.6328C19.2294 7.51984 9.56863 0.509766 9.56863 0.509766C9.56863 0.509766 7.62602 16.9216 6.05325 25.1016C4.59491 27.9391 0.585937 32.957 0.585938 32.957L18.2494 48.8359L28.2452 60.0078" fill="#EC6D1E"/>
<path d="M12.4805 27.6855V27.8867L22.0805 38.9219L27.6189 51.1602L26.3266 33.7051L12.4805 27.6855ZM51.1266 27.6855L37.2805 33.7051L35.9882 51.1602L41.5266 38.9219L51.1266 27.8867V27.6855Z" fill="#1F171B"/>
<path d="M28.2451 60.0078L31.8349 63.9532L35.3606 60.0084L28.2451 60.0078Z" fill="#1F171B"/>
</g>
<defs>
<clipPath id="clip0_2079_2">
<rect width="64" height="64" fill="white"/>
</clipPath>
</defs>
</svg>
